<svg width="313" height="170" viewBox="0 0 313 170" fill="none" xmlns="http://www.w3.org/2000/svg">
<g filter="url(#filter0_dddd_131_3810)">
<rect x="51" y="18" width="211" height="68" rx="12" fill="black"/>
</g>
<path d="M118.684 41.271C118.684 42.8029 118.267 43.9751 117.433 44.7876C116.604 45.5959 115.408 46 113.847 46H111.276V36.7197H114.12C115.563 36.7197 116.684 37.1196 117.484 37.9194C118.284 38.7192 118.684 39.8364 118.684 41.271ZM117.541 41.3091C117.541 40.0988 117.236 39.1868 116.627 38.5732C116.022 37.9596 115.12 37.6528 113.923 37.6528H112.355V45.0669H113.669C114.955 45.0669 115.922 44.7516 116.57 44.1211C117.217 43.4863 117.541 42.549 117.541 41.3091ZM126.605 42.5151C126.605 43.6493 126.32 44.5358 125.749 45.1748C125.177 45.8096 124.388 46.127 123.381 46.127C122.759 46.127 122.207 45.981 121.724 45.689C121.242 45.397 120.869 44.978 120.607 44.4321C120.345 43.8862 120.213 43.2472 120.213 42.5151C120.213 41.381 120.497 40.4987 121.064 39.8682C121.631 39.2334 122.418 38.916 123.425 38.916C124.399 38.916 125.171 39.2397 125.742 39.8872C126.318 40.5347 126.605 41.4106 126.605 42.5151ZM121.305 42.5151C121.305 43.4038 121.483 44.0809 121.838 44.5464C122.194 45.0119 122.716 45.2446 123.406 45.2446C124.096 45.2446 124.619 45.014 124.974 44.5527C125.334 44.0872 125.514 43.408 125.514 42.5151C125.514 41.6307 125.334 40.96 124.974 40.5029C124.619 40.0417 124.092 39.811 123.394 39.811C122.704 39.811 122.183 40.0374 121.832 40.4902C121.481 40.943 121.305 41.618 121.305 42.5151ZM134.14 46L132.864 41.9185C132.784 41.6688 132.634 41.1017 132.414 40.2173H132.363C132.194 40.9578 132.045 41.5291 131.918 41.9312L130.604 46H129.386L127.488 39.043H128.592C129.041 40.7907 129.382 42.1216 129.614 43.0356C129.851 43.9497 129.987 44.5654 130.021 44.8828H130.071C130.118 44.6416 130.192 44.3306 130.293 43.9497C130.399 43.5646 130.49 43.2599 130.566 43.0356L131.842 39.043H132.985L134.229 43.0356C134.466 43.7635 134.627 44.375 134.711 44.8701H134.762C134.779 44.7178 134.824 44.4829 134.896 44.1655C134.972 43.8481 135.414 42.1406 136.222 39.043H137.314L135.391 46H134.14ZM143.338 46V41.4995C143.338 40.9325 143.209 40.5093 142.951 40.23C142.693 39.9507 142.288 39.811 141.738 39.811C141.01 39.811 140.477 40.0078 140.139 40.4014C139.8 40.7949 139.631 41.4445 139.631 42.3501V46H138.577V39.043H139.434L139.605 39.9951H139.656C139.872 39.6523 140.175 39.3879 140.564 39.2017C140.953 39.0112 141.387 38.916 141.865 38.916C142.703 38.916 143.334 39.1191 143.757 39.5254C144.18 39.9274 144.392 40.5728 144.392 41.4614V46H143.338ZM147.616 46H146.562V36.123H147.616V46ZM155.855 42.5151C155.855 43.6493 155.57 44.5358 154.999 45.1748C154.427 45.8096 153.638 46.127 152.631 46.127C152.009 46.127 151.457 45.981 150.974 45.689C150.492 45.397 150.119 44.978 149.857 44.4321C149.595 43.8862 149.463 43.2472 149.463 42.5151C149.463 41.381 149.747 40.4987 150.314 39.8682C150.881 39.2334 151.668 38.916 152.675 38.916C153.649 38.916 154.421 39.2397 154.992 39.8872C155.568 40.5347 155.855 41.4106 155.855 42.5151ZM150.555 42.5151C150.555 43.4038 150.733 44.0809 151.088 44.5464C151.444 45.0119 151.966 45.2446 152.656 45.2446C153.346 45.2446 153.869 45.014 154.224 44.5527C154.584 44.0872 154.764 43.408 154.764 42.5151C154.764 41.6307 154.584 40.96 154.224 40.5029C153.869 40.0417 153.342 39.811 152.644 39.811C151.954 39.811 151.433 40.0374 151.082 40.4902C150.731 40.943 150.555 41.618 150.555 42.5151ZM161.987 46L161.778 45.0098H161.727C161.38 45.4456 161.033 45.7419 160.686 45.8984C160.343 46.0508 159.914 46.127 159.397 46.127C158.708 46.127 158.166 45.9492 157.772 45.5938C157.383 45.2383 157.188 44.7326 157.188 44.0767C157.188 42.6717 158.312 41.9354 160.559 41.8677L161.74 41.8296V41.3979C161.74 40.8521 161.621 40.45 161.384 40.1919C161.152 39.9295 160.777 39.7983 160.261 39.7983C159.681 39.7983 159.025 39.9761 158.293 40.3315L157.969 39.5254C158.312 39.3392 158.687 39.1932 159.093 39.0874C159.503 38.9816 159.914 38.9287 160.324 38.9287C161.154 38.9287 161.767 39.1128 162.165 39.481C162.567 39.8491 162.768 40.4395 162.768 41.252V46H161.987ZM159.607 45.2573C160.263 45.2573 160.777 45.0775 161.149 44.7178C161.526 44.3581 161.714 43.8545 161.714 43.207V42.5786L160.661 42.623C159.823 42.6527 159.218 42.7839 158.845 43.0166C158.477 43.2451 158.293 43.6027 158.293 44.0894C158.293 44.4702 158.407 44.7601 158.636 44.959C158.868 45.1579 159.192 45.2573 159.607 45.2573ZM169.681 45.0669H169.624C169.137 45.7736 168.409 46.127 167.44 46.127C166.53 46.127 165.821 45.8159 165.313 45.1938C164.81 44.5718 164.558 43.6873 164.558 42.5405C164.558 41.3937 164.812 40.5029 165.32 39.8682C165.828 39.2334 166.534 38.916 167.44 38.916C168.384 38.916 169.107 39.2588 169.611 39.9443H169.693L169.649 39.4429L169.624 38.9541V36.123H170.677V46H169.82L169.681 45.0669ZM167.573 45.2446C168.293 45.2446 168.813 45.05 169.135 44.6606C169.461 44.2671 169.624 43.6344 169.624 42.7627V42.5405C169.624 41.5545 169.458 40.8521 169.128 40.4331C168.803 40.0099 168.28 39.7983 167.561 39.7983C166.943 39.7983 166.469 40.0396 166.139 40.522C165.813 41.0002 165.65 41.6772 165.65 42.5532C165.65 43.4419 165.813 44.1126 166.139 44.5654C166.465 45.0182 166.943 45.2446 167.573 45.2446ZM182.3 42.5151C182.3 43.6493 182.014 44.5358 181.443 45.1748C180.872 45.8096 180.082 46.127 179.075 46.127C178.453 46.127 177.901 45.981 177.418 45.689C176.936 45.397 176.564 44.978 176.301 44.4321C176.039 43.8862 175.908 43.2472 175.908 42.5151C175.908 41.381 176.191 40.4987 176.758 39.8682C177.325 39.2334 178.112 38.916 179.12 38.916C180.093 38.916 180.865 39.2397 181.437 39.8872C182.012 40.5347 182.3 41.4106 182.3 42.5151ZM177 42.5151C177 43.4038 177.177 44.0809 177.533 44.5464C177.888 45.0119 178.411 45.2446 179.101 45.2446C179.79 45.2446 180.313 45.014 180.668 44.5527C181.028 44.0872 181.208 43.408 181.208 42.5151C181.208 41.6307 181.028 40.96 180.668 40.5029C180.313 40.0417 179.786 39.811 179.088 39.811C178.398 39.811 177.878 40.0374 177.526 40.4902C177.175 40.943 177 41.618 177 42.5151ZM188.914 46V41.4995C188.914 40.9325 188.785 40.5093 188.527 40.23C188.269 39.9507 187.865 39.811 187.314 39.811C186.587 39.811 186.053 40.0078 185.715 40.4014C185.376 40.7949 185.207 41.4445 185.207 42.3501V46H184.153V39.043H185.01L185.182 39.9951H185.232C185.448 39.6523 185.751 39.3879 186.14 39.2017C186.529 39.0112 186.963 38.916 187.441 38.916C188.279 38.916 188.91 39.1191 189.333 39.5254C189.756 39.9274 189.968 40.5728 189.968 41.4614V46H188.914ZM197.763 45.2573C197.949 45.2573 198.129 45.2446 198.302 45.2192C198.476 45.1896 198.613 45.16 198.715 45.1304V45.9365C198.601 45.9915 198.431 46.036 198.207 46.0698C197.987 46.1079 197.788 46.127 197.61 46.127C196.265 46.127 195.592 45.4181 195.592 44.0005V39.8618H194.595V39.354L195.592 38.916L196.036 37.4307H196.646V39.043H198.664V39.8618H196.646V43.9561C196.646 44.375 196.745 44.6966 196.944 44.9209C197.143 45.1452 197.416 45.2573 197.763 45.2573ZM204.872 46V41.4995C204.872 40.9325 204.743 40.5093 204.485 40.23C204.227 39.9507 203.823 39.811 203.272 39.811C202.54 39.811 202.005 40.0099 201.667 40.4077C201.332 40.8055 201.165 41.4572 201.165 42.3628V46H200.111V36.123H201.165V39.1128C201.165 39.4725 201.148 39.7708 201.114 40.0078H201.178C201.385 39.6735 201.679 39.4111 202.06 39.2207C202.445 39.026 202.883 38.9287 203.374 38.9287C204.225 38.9287 204.861 39.1318 205.285 39.5381C205.712 39.9401 205.926 40.5812 205.926 41.4614V46H204.872ZM211.036 46.127C210.007 46.127 209.195 45.8138 208.598 45.1875C208.006 44.5612 207.709 43.6916 207.709 42.5786C207.709 41.4572 207.985 40.5664 208.535 39.9062C209.089 39.2461 209.832 38.916 210.763 38.916C211.634 38.916 212.324 39.2038 212.832 39.7793C213.34 40.3506 213.594 41.106 213.594 42.0454V42.7119H208.801C208.822 43.5286 209.028 44.1486 209.417 44.5718C209.811 44.995 210.363 45.2065 211.074 45.2065C211.823 45.2065 212.563 45.05 213.295 44.7368V45.6763C212.923 45.8371 212.57 45.9513 212.235 46.019C211.905 46.091 211.505 46.127 211.036 46.127ZM210.75 39.7983C210.191 39.7983 209.745 39.9803 209.411 40.3442C209.081 40.7082 208.886 41.2118 208.827 41.855H212.464C212.464 41.1906 212.316 40.6828 212.02 40.3315C211.723 39.9761 211.3 39.7983 210.75 39.7983Z" fill="white"/>
<path d="M118.837 67.572L117.905 64.5134H113.221L112.289 67.572H109.354L113.889 54.6697H117.22L121.772 67.572H118.837ZM117.255 62.2283C116.394 59.4568 115.907 57.8894 115.796 57.5261C115.69 57.1628 115.614 56.8757 115.567 56.6648C115.374 57.4148 114.82 59.2693 113.906 62.2283H117.255ZM128.584 67.7478C127.43 67.7478 126.524 67.3289 125.868 66.491H125.728C125.821 67.3113 125.868 67.7859 125.868 67.9148V71.8962H123.188V57.7458H125.367L125.745 59.0203H125.868C126.495 58.0476 127.424 57.5613 128.654 57.5613C129.814 57.5613 130.723 58.0095 131.379 58.906C132.035 59.8025 132.363 61.0476 132.363 62.6414C132.363 63.6902 132.208 64.6013 131.897 65.3748C131.593 66.1482 131.156 66.7371 130.588 67.1414C130.02 67.5457 129.352 67.7478 128.584 67.7478ZM127.793 59.7058C127.131 59.7058 126.647 59.9109 126.343 60.321C126.038 60.7253 125.88 61.3962 125.868 62.3337V62.6238C125.868 63.6785 126.023 64.4343 126.334 64.8914C126.65 65.3484 127.148 65.5769 127.828 65.5769C129.029 65.5769 129.63 64.5867 129.63 62.6062C129.63 61.6394 129.48 60.9158 129.182 60.4353C128.889 59.949 128.426 59.7058 127.793 59.7058ZM139.975 67.7478C138.82 67.7478 137.915 67.3289 137.259 66.491H137.118C137.212 67.3113 137.259 67.7859 137.259 67.9148V71.8962H134.578V57.7458H136.758L137.136 59.0203H137.259C137.886 58.0476 138.814 57.5613 140.045 57.5613C141.205 57.5613 142.113 58.0095 142.77 58.906C143.426 59.8025 143.754 61.0476 143.754 62.6414C143.754 63.6902 143.599 64.6013 143.288 65.3748C142.983 66.1482 142.547 66.7371 141.979 67.1414C141.41 67.5457 140.742 67.7478 139.975 67.7478ZM139.184 59.7058C138.521 59.7058 138.038 59.9109 137.733 60.321C137.429 60.7253 137.271 61.3962 137.259 62.3337V62.6238C137.259 63.6785 137.414 64.4343 137.725 64.8914C138.041 65.3484 138.539 65.5769 139.219 65.5769C140.42 65.5769 141.021 64.5867 141.021 62.6062C141.021 61.6394 140.871 60.9158 140.572 60.4353C140.279 59.949 139.816 59.7058 139.184 59.7058ZM158.44 64.0037C158.44 65.1638 158.021 66.0779 157.184 66.7458C156.352 67.4138 155.191 67.7478 153.703 67.7478C152.332 67.7478 151.119 67.49 150.064 66.9744V64.4431C150.932 64.8298 151.664 65.1023 152.262 65.2605C152.865 65.4187 153.416 65.4978 153.914 65.4978C154.512 65.4978 154.969 65.3835 155.285 65.155C155.607 64.9265 155.769 64.5867 155.769 64.1355C155.769 63.8835 155.698 63.6609 155.558 63.4675C155.417 63.2683 155.209 63.0779 154.934 62.8962C154.664 62.7146 154.11 62.4246 153.272 62.0261C152.487 61.657 151.898 61.3025 151.506 60.9626C151.113 60.6228 150.8 60.2273 150.565 59.7761C150.331 59.325 150.214 58.7976 150.214 58.1941C150.214 57.0574 150.598 56.1638 151.365 55.5134C152.139 54.863 153.205 54.5378 154.564 54.5378C155.232 54.5378 155.868 54.6169 156.472 54.7751C157.081 54.9333 157.717 55.156 158.379 55.4431L157.5 57.5613C156.814 57.28 156.246 57.0837 155.795 56.9724C155.35 56.8611 154.91 56.8054 154.477 56.8054C153.961 56.8054 153.565 56.9255 153.29 57.1658C153.015 57.406 152.877 57.7195 152.877 58.1062C152.877 58.3464 152.933 58.5574 153.044 58.739C153.155 58.9148 153.331 59.0876 153.571 59.2576C153.817 59.4216 154.395 59.7205 155.303 60.1541C156.504 60.7283 157.327 61.3054 157.772 61.8855C158.218 62.4597 158.44 63.1658 158.44 64.0037ZM164.698 65.6121C165.167 65.6121 165.729 65.5095 166.386 65.3044V67.2996C165.718 67.5984 164.897 67.7478 163.925 67.7478C162.853 67.7478 162.07 67.4783 161.578 66.9392C161.092 66.3943 160.849 65.5798 160.849 64.4958V59.7585H159.565V58.6248L161.042 57.7283L161.815 55.6541H163.529V57.7458H166.28V59.7585H163.529V64.4958C163.529 64.8767 163.635 65.158 163.846 65.3396C164.062 65.5212 164.347 65.6121 164.698 65.6121ZM170.517 62.6414C170.517 63.614 170.675 64.3494 170.991 64.8474C171.313 65.3455 171.835 65.5945 172.556 65.5945C173.271 65.5945 173.783 65.3484 174.094 64.8562C174.41 64.3582 174.568 63.6199 174.568 62.6414C174.568 61.6687 174.41 60.9392 174.094 60.4529C173.777 59.9666 173.259 59.7234 172.538 59.7234C171.823 59.7234 171.308 59.9666 170.991 60.4529C170.675 60.9333 170.517 61.6628 170.517 62.6414ZM177.311 62.6414C177.311 64.241 176.889 65.4919 176.045 66.3943C175.201 67.2966 174.026 67.7478 172.521 67.7478C171.577 67.7478 170.745 67.5427 170.024 67.1326C169.304 66.7166 168.75 66.1218 168.363 65.3484C167.977 64.575 167.783 63.6726 167.783 62.6414C167.783 61.0359 168.202 59.7878 169.04 58.8972C169.878 58.0066 171.056 57.5613 172.573 57.5613C173.517 57.5613 174.349 57.7664 175.069 58.1765C175.79 58.5867 176.344 59.1755 176.73 59.9431C177.117 60.7107 177.311 61.6101 177.311 62.6414ZM185.01 57.5613C185.373 57.5613 185.675 57.5876 185.915 57.6404L185.713 60.1541C185.496 60.0955 185.232 60.0662 184.922 60.0662C184.066 60.0662 183.398 60.2859 182.918 60.7253C182.443 61.1648 182.206 61.78 182.206 62.571V67.572H179.525V57.7458H181.556L181.951 59.3982H182.083C182.388 58.8474 182.798 58.405 183.313 58.071C183.835 57.7312 184.4 57.5613 185.01 57.5613ZM191.769 59.4685C191.2 59.4685 190.755 59.6501 190.433 60.0134C190.11 60.3708 189.926 60.8806 189.879 61.5427H193.641C193.629 60.8806 193.456 60.3708 193.122 60.0134C192.788 59.6501 192.337 59.4685 191.769 59.4685ZM192.146 67.7478C190.564 67.7478 189.328 67.3113 188.438 66.4382C187.547 65.5652 187.102 64.3289 187.102 62.7292C187.102 61.0828 187.512 59.8113 188.332 58.9148C189.158 58.0125 190.298 57.5613 191.751 57.5613C193.14 57.5613 194.221 57.9568 194.994 58.7478C195.768 59.5388 196.154 60.6316 196.154 62.0261V63.3269H189.817C189.847 64.0886 190.072 64.6833 190.494 65.1111C190.916 65.5388 191.508 65.7527 192.27 65.7527C192.861 65.7527 193.421 65.6912 193.948 65.5681C194.476 65.4451 195.026 65.2488 195.601 64.9792V67.0535C195.132 67.2878 194.631 67.4607 194.098 67.572C193.564 67.6892 192.914 67.7478 192.146 67.7478Z" fill="white"/>
<path d="M89.375 51.8903C89.4019 49.7288 90.5229 47.6836 92.3013 46.5515C91.1794 44.8924 89.3002 43.8404 87.3451 43.7771C85.2599 43.5505 83.2384 45.0691 82.1758 45.0691C81.0926 45.0691 79.4566 43.7996 77.6948 43.8371C75.3984 43.9139 73.2577 45.2658 72.1404 47.3447C69.7388 51.6502 71.5302 57.9778 73.8307 61.458C74.9817 63.1622 76.3269 65.0658 78.0871 64.9983C79.8095 64.9243 80.4528 63.861 82.5319 63.861C84.5917 63.861 85.1953 64.9983 86.9911 64.9553C88.8394 64.9243 90.0038 63.2436 91.1145 61.5233C91.9415 60.309 92.5778 58.967 93 57.5469C90.828 56.5956 89.3775 54.3323 89.375 51.8903Z" fill="white"/>
<path d="M85.9828 41.4883C86.9906 40.2357 87.487 38.6256 87.3668 37C85.8272 37.1674 84.4051 37.9294 83.3837 39.134C82.385 40.3109 81.8652 41.8927 81.9635 43.4561C83.5036 43.4725 85.0177 42.7313 85.9828 41.4883Z" fill="white"/>
<defs>
<filter id="filter0_dddd_131_3810" x="0" y="0" width="313" height="170" filterUnits="userSpaceOnUse" color-interpolation-filters="sRGB">
<feFlood flood-opacity="0" result="BackgroundImageFix"/>
<feColorMatrix in="SourceAlpha" type="matrix" values="0 0 0 0 0 0 0 0 0 0 0 0 0 0 0 0 0 0 127 0" result="hardAlpha"/>
<feOffset dy="1.4945"/>
<feGaussianBlur stdDeviation="1.15484"/>
<feColorMatrix type="matrix" values="0 0 0 0 0 0 0 0 0 0 0 0 0 0 0 0 0 0 0.0268173 0"/>
<feBlend mode="normal" in2="BackgroundImageFix" result="effect1_dropShadow_131_3810"/>
<feColorMatrix in="SourceAlpha" type="matrix" values="0 0 0 0 0 0 0 0 0 0 0 0 0 0 0 0 0 0 127 0" result="hardAlpha"/>
<feOffset dy="4.13211"/>
<feGaussianBlur stdDeviation="3.193"/>
<feColorMatrix type="matrix" values="0 0 0 0 0 0 0 0 0 0 0 0 0 0 0 0 0 0 0.0399899 0"/>
<feBlend mode="normal" in2="effect1_dropShadow_131_3810" result="effect2_dropShadow_131_3810"/>
<feColorMatrix in="SourceAlpha" type="matrix" values="0 0 0 0 0 0 0 0 0 0 0 0 0 0 0 0 0 0 127 0" result="hardAlpha"/>
<feOffset dy="9.94853"/>
<feGaussianBlur stdDeviation="7.6875"/>
<feColorMatrix type="matrix" values="0 0 0 0 0 0 0 0 0 0 0 0 0 0 0 0 0 0 0.0582218 0"/>
<feBlend mode="normal" in2="effect2_dropShadow_131_3810" result="effect3_dropShadow_131_3810"/>
<feColorMatrix in="SourceAlpha" type="matrix" values="0 0 0 0 0 0 0 0 0 0 0 0 0 0 0 0 0 0 127 0" result="hardAlpha"/>
<feOffset dy="33"/>
<feGaussianBlur stdDeviation="25.5"/>
<feColorMatrix type="matrix" values="0 0 0 0 0 0 0 0 0 0 0 0 0 0 0 0 0 0 0.08 0"/>
<feBlend mode="normal" in2="effect3_dropShadow_131_3810" result="effect4_dropShadow_131_3810"/>
<feBlend mode="normal" in="SourceGraphic" in2="effect4_dropShadow_131_3810" result="shape"/>
</filter>
</defs>
</svg>
