<svg width="1904" height="173" viewBox="0 0 1904 173" fill="none" xmlns="http://www.w3.org/2000/svg">
<path d="M1061.46 33.8031C1020.62 22.9074 959.531 13.7939 934.092 10.5992C804.579 -5.80824 536.794 108.048 416.016 168.487H1904V39.8563C1668.27 136.707 1484.33 136.035 1421.83 123.592C1320.34 110.275 1139.29 58.184 1061.46 33.8031Z" fill="white" fill-opacity="0.06"/>
<path d="M302.177 27.2617C197.532 -0.478828 46.4569 70.6482 -16 109.679V173H635L543.587 124.756C445.811 79.3255 341.907 40.8304 302.177 27.2617Z" fill="white" fill-opacity="0.06"/>
<path d="M478.963 4.24494C398.506 -15.0424 274.283 36.0556 222.228 64.0156C204.843 71.6502 75.499 138.52 13 171L858 171C837.38 161.356 727.443 102.691 675.051 74.5633C615.922 47.2138 521.92 14.9601 478.963 4.24494Z" fill="white" fill-opacity="0.08"/>
<path d="M1733.46 123.275C1780.69 118.05 1866.17 130.141 1903 136.84V170H1628C1661.1 141.061 1712.1 126.792 1733.46 123.275Z" fill="white" fill-opacity="0.08"/>
<path d="M1610.37 142C1669.27 144 1764 161.5 1804 170H1507C1536.85 148.8 1588.35 142.5 1610.37 142Z" fill="white" fill-opacity="0.1"/>
</svg>
