<svg width="22" height="17" viewBox="0 0 22 17" fill="none" xmlns="http://www.w3.org/2000/svg">
<path d="M5.86814 14.9964L1.2197 10.3426C0.756589 9.87901 0.441266 9.28855 0.313562 8.64584C0.185858 8.00312 0.251502 7.33697 0.502201 6.73154C0.7529 6.12611 1.17741 5.60856 1.7221 5.24427C2.26679 4.87998 2.90723 4.68529 3.56251 4.6848C3.99802 4.68308 4.42951 4.76816 4.83177 4.93509C5.23402 5.10201 5.59898 5.34742 5.90532 5.65698L8.87501 8.62136L16.0947 1.40698C16.7227 0.8187 17.5548 0.497641 18.4151 0.511672C19.2755 0.525703 20.0967 0.873724 20.7051 1.48217C21.3136 2.09062 21.6616 2.91181 21.6756 3.77218C21.6897 4.63254 21.3686 5.46464 20.7803 6.09261L11.8819 14.9964C11.4872 15.3915 11.0184 15.705 10.5025 15.9189C9.98656 16.1327 9.43353 16.2428 8.87501 16.2428C8.31649 16.2428 7.76346 16.1327 7.24751 15.9189C6.73157 15.705 6.26285 15.3915 5.86814 14.9964ZM3.56251 6.8098C3.32734 6.81104 3.09776 6.88162 2.90251 7.01272C2.70726 7.14381 2.55503 7.32959 2.46486 7.54679C2.37469 7.76399 2.35059 8.00297 2.39559 8.2338C2.44059 8.46463 2.55267 8.67705 2.71782 8.84448L7.37157 13.4929C7.56893 13.6905 7.80329 13.8472 8.06126 13.9542C8.31923 14.0611 8.59575 14.1162 8.87501 14.1162C9.15427 14.1162 9.43079 14.0611 9.68876 13.9542C9.94673 13.8472 10.1811 13.6905 10.3784 13.4929L19.2822 4.59448C19.3996 4.48505 19.4938 4.35309 19.5592 4.20647C19.6245 4.05984 19.6596 3.90156 19.6625 3.74107C19.6653 3.58057 19.6358 3.42115 19.5756 3.27231C19.5155 3.12348 19.426 2.98827 19.3125 2.87477C19.199 2.76126 19.0638 2.67178 18.915 2.61166C18.7662 2.55155 18.6067 2.52202 18.4462 2.52485C18.2857 2.52769 18.1275 2.56282 17.9808 2.62815C17.8342 2.69348 17.7023 2.78767 17.5928 2.90511L10.3784 10.1248C9.97331 10.5113 9.43491 10.7269 8.87501 10.7269C8.31511 10.7269 7.77671 10.5113 7.37157 10.1248C4.16814 6.9373 4.22657 6.8098 3.56251 6.8098Z" fill="#2E58FF"/>
</svg>
