<svg width="24" height="25" viewBox="0 0 24 25" fill="none" xmlns="http://www.w3.org/2000/svg">
<path d="M12 24.7304C18.6274 24.7304 24 19.1943 24 12.3652C24 5.53608 18.6274 0 12 0C5.37258 0 0 5.53608 0 12.3652C0 19.1943 5.37258 24.7304 12 24.7304Z" fill="url(#paint0_linear_211_795)"/>
<path d="M13.1116 11.8031L18.439 6.36209C18.5815 6.21651 18.5815 5.98449 18.439 5.84346C18.2965 5.69788 18.0693 5.69788 17.9312 5.84346L12.5994 11.2845L7.1606 5.72973C7.01806 5.58415 6.79089 5.58415 6.6528 5.72973C6.51026 5.87531 6.51026 6.10733 6.6528 6.24836L12.0916 11.8031L6.6528 17.3579C6.51026 17.5035 6.51026 17.7355 6.6528 17.8765C6.72407 17.9493 6.81761 17.9857 6.9067 17.9857C7.00024 17.9857 7.08933 17.9493 7.1606 17.8765L12.5994 12.3218L17.9267 17.7628C17.998 17.8356 18.0916 17.872 18.1806 17.872C18.2742 17.872 18.3633 17.8356 18.4345 17.7628C18.5771 17.6172 18.5771 17.3852 18.4345 17.2442L13.1116 11.8031Z" fill="white"/>
<defs>
<linearGradient id="paint0_linear_211_795" x1="12" y1="24.7304" x2="12" y2="0" gradientUnits="userSpaceOnUse">
<stop stop-color="#E73827"/>
<stop offset="1" stop-color="#F85032"/>
</linearGradient>
</defs>
</svg>
