<svg width="30" height="30" viewBox="0 0 30 30" fill="none" xmlns="http://www.w3.org/2000/svg">
<path d="M22.3748 12.2498C22.3498 12.2498 22.3123 12.2498 22.2873 12.2498C17.9623 11.8248 13.6623 11.6497 9.39979 12.0872L7.72477 12.2498C7.19977 12.2998 6.74978 11.9248 6.69978 11.4123C6.64978 10.8998 7.02478 10.4372 7.53728 10.3872L9.21228 10.2247C13.5998 9.78724 18.0248 9.94975 22.4748 10.3872C22.9873 10.4372 23.3623 10.8998 23.3123 11.4123C23.2623 11.8873 22.8498 12.2498 22.3748 12.2498Z" fill="#B20F15"/>
<path d="M17.8623 11.4252C17.4123 11.4252 17.0124 11.1002 16.9374 10.6502L16.7624 9.58768C16.7374 9.41268 16.6874 9.13768 16.6374 9.07518C16.6374 9.07518 16.5124 9.00018 16.0624 9.00018H13.9124C13.4499 9.00018 13.3249 9.07518 13.3249 9.07518C13.2999 9.12518 13.2499 9.40019 13.2249 9.57519L13.0499 10.6502C12.9624 11.1627 12.4749 11.5002 11.9749 11.4252C11.4624 11.3377 11.1249 10.8502 11.1999 10.3502L11.3749 9.27518C11.5124 8.47518 11.7374 7.1377 13.9124 7.1377H16.0624C18.2499 7.1377 18.4749 8.53768 18.5999 9.28768L18.7749 10.3502C18.8624 10.8627 18.5124 11.3502 18.0124 11.4252C17.9749 11.4252 17.9123 11.4252 17.8623 11.4252Z" fill="#B20F15"/>
<path d="M17.6255 22.8874H12.363C9.20048 22.8874 9.06297 20.9874 8.97547 19.7249L8.43798 11.4624C8.40048 10.9499 8.80048 10.4999 9.31298 10.4624C9.83798 10.4249 10.2755 10.8249 10.313 11.3374L10.8505 19.5874C10.938 20.8124 10.9505 20.9999 12.363 20.9999H17.6255C19.038 20.9999 19.0505 20.8124 19.138 19.5874L19.6755 11.3374C19.713 10.8249 20.138 10.4249 20.6755 10.4624C21.188 10.4999 21.588 10.9374 21.5505 11.4624L21.013 19.7124C20.9255 20.9874 20.8005 22.8874 17.6255 22.8874Z" fill="#B20F15"/>
</svg>
