<svg width="18" height="18" viewBox="0 0 18 18" fill="none" xmlns="http://www.w3.org/2000/svg">
<g clip-path="url(#clip0_145_1952)">
<path fill-rule="evenodd" clip-rule="evenodd" d="M3.87916 9.00018C3.87916 8.41561 3.97619 7.85507 4.14958 7.32942L1.1163 5.01318C0.525108 6.21342 0.192108 7.56595 0.192108 9.00018C0.192108 10.4333 0.524827 11.7848 1.11503 12.9844L4.14662 10.6636C3.97492 10.1404 3.87916 9.58195 3.87916 9.00018Z" fill="#FBBC05"/>
<path fill-rule="evenodd" clip-rule="evenodd" d="M9.20488 3.68184C10.4749 3.68184 11.6219 4.13184 12.5232 4.86816L15.145 2.25C13.5474 0.859078 11.499 0 9.20488 0C5.64313 0 2.58201 2.03681 1.11627 5.013L4.14941 7.32924C4.84832 5.20777 6.84055 3.68184 9.20488 3.68184Z" fill="#EA4335"/>
<path fill-rule="evenodd" clip-rule="evenodd" d="M9.20488 14.3183C6.84069 14.3183 4.84846 12.7924 4.14955 10.6709L1.11627 12.9867C2.58201 15.9633 5.64313 18.0001 9.20488 18.0001C11.4031 18.0001 13.502 17.2195 15.0771 15.757L12.1979 13.5312C11.3856 14.0429 10.3625 14.3183 9.20488 14.3183Z" fill="#34A853"/>
<path fill-rule="evenodd" clip-rule="evenodd" d="M17.8079 9.00008C17.8079 8.46824 17.7259 7.89547 17.603 7.36377H9.2049V10.841H14.039C13.7973 12.0266 13.1394 12.938 12.198 13.5312L15.0771 15.757C16.7317 14.2213 17.8079 11.9337 17.8079 9.00008Z" fill="#4285F4"/>
</g>
<defs>
<clipPath id="clip0_145_1952">
<rect width="18" height="18" fill="white"/>
</clipPath>
</defs>
</svg>
