<svg width="313" height="170" viewBox="0 0 313 170" fill="none" xmlns="http://www.w3.org/2000/svg">
<g filter="url(#filter0_d_131_3793)">
<g filter="url(#filter1_dddd_131_3793)">
<rect x="51" y="18" width="211" height="68" rx="12" fill="black"/>
</g>
<path d="M115.083 41.1765H118.238V45.6897C117.747 45.8463 117.248 45.9648 116.74 46.0452C116.232 46.1256 115.644 46.1658 114.976 46.1658C113.571 46.1658 112.477 45.7489 111.694 44.9153C110.911 44.0774 110.52 42.9052 110.52 41.3987C110.52 40.4338 110.712 39.5896 111.097 38.866C111.486 38.1381 112.045 37.5837 112.773 37.2029C113.501 36.8178 114.354 36.6252 115.331 36.6252C116.321 36.6252 117.244 36.8072 118.099 37.1711L117.68 38.1233C116.842 37.7678 116.036 37.5901 115.261 37.5901C114.131 37.5901 113.249 37.9265 112.614 38.5994C111.979 39.2722 111.662 40.2053 111.662 41.3987C111.662 42.6513 111.967 43.6013 112.576 44.2488C113.19 44.8962 114.089 45.22 115.274 45.22C115.917 45.22 116.546 45.1459 117.159 44.9978V42.1414H115.083V41.1765ZM125.646 46.0388H120.473V36.7585H125.646V37.717H121.552V40.7068H125.398V41.6589H121.552V45.074H125.646V46.0388ZM130.565 46.0388H129.486V37.717H126.547V36.7585H133.504V37.717H130.565V46.0388ZM138.284 46.0388V36.7585H139.363V46.0388H138.284ZM144.771 46.0388H143.692V37.717H140.753V36.7585H147.71V37.717H144.771V46.0388ZM160.545 41.386C160.545 42.8713 160.169 44.0393 159.416 44.8899C158.667 45.7405 157.623 46.1658 156.286 46.1658C154.919 46.1658 153.863 45.7489 153.119 44.9153C152.378 44.0774 152.008 42.8967 152.008 41.3733C152.008 39.8625 152.38 38.6925 153.125 37.863C153.87 37.0294 154.928 36.6125 156.299 36.6125C157.632 36.6125 158.673 37.0357 159.422 37.8821C160.171 38.7284 160.545 39.8964 160.545 41.386ZM153.15 41.386C153.15 42.6428 153.417 43.5971 153.95 44.2488C154.488 44.8962 155.266 45.22 156.286 45.22C157.314 45.22 158.091 44.8962 158.616 44.2488C159.14 43.6013 159.403 42.6471 159.403 41.386C159.403 40.1376 159.14 39.1918 158.616 38.5486C158.095 37.9011 157.323 37.5774 156.299 37.5774C155.271 37.5774 154.488 37.9032 153.95 38.5549C153.417 39.2024 153.15 40.1461 153.15 41.386ZM169.87 46.0388H168.639L163.567 38.2502H163.516C163.584 39.1643 163.618 40.0022 163.618 40.7639V46.0388H162.621V36.7585H163.84L168.899 44.5154H168.95C168.941 44.4011 168.922 44.0351 168.893 43.4172C168.863 42.7952 168.852 42.3508 168.861 42.0842V36.7585H169.87V46.0388Z" fill="white"/>
<path d="M115.849 60.3562H120.946V67.0183C120.12 67.2878 119.341 67.4753 118.608 67.5808C117.882 67.6921 117.138 67.7478 116.376 67.7478C114.437 67.7478 112.954 67.1794 111.929 66.0427C110.909 64.9001 110.399 63.2625 110.399 61.1296C110.399 59.0554 110.991 57.4382 112.175 56.2781C113.364 55.1179 115.011 54.5378 117.114 54.5378C118.433 54.5378 119.704 54.8015 120.929 55.3289L120.023 57.5085C119.086 57.0398 118.11 56.8054 117.097 56.8054C115.919 56.8054 114.976 57.2009 114.267 57.9919C113.558 58.783 113.203 59.8464 113.203 61.1824C113.203 62.5769 113.487 63.6433 114.056 64.3816C114.63 65.114 115.462 65.4802 116.552 65.4802C117.12 65.4802 117.697 65.4216 118.283 65.3044V62.6238H115.849V60.3562ZM125.938 62.6414C125.938 63.614 126.097 64.3494 126.413 64.8474C126.735 65.3455 127.257 65.5945 127.978 65.5945C128.692 65.5945 129.205 65.3484 129.516 64.8562C129.832 64.3582 129.99 63.6199 129.99 62.6414C129.99 61.6687 129.832 60.9392 129.516 60.4529C129.199 59.9666 128.681 59.7234 127.96 59.7234C127.245 59.7234 126.729 59.9666 126.413 60.4529C126.097 60.9333 125.938 61.6628 125.938 62.6414ZM132.732 62.6414C132.732 64.241 132.311 65.4919 131.467 66.3943C130.623 67.2966 129.448 67.7478 127.942 67.7478C126.999 67.7478 126.167 67.5427 125.446 67.1326C124.726 66.7166 124.172 66.1218 123.785 65.3484C123.398 64.575 123.205 63.6726 123.205 62.6414C123.205 61.0359 123.624 59.7878 124.462 58.8972C125.3 58.0066 126.478 57.5613 127.995 57.5613C128.938 57.5613 129.771 57.7664 130.491 58.1765C131.212 58.5867 131.766 59.1755 132.152 59.9431C132.539 60.7107 132.732 61.6101 132.732 62.6414ZM137.083 62.6414C137.083 63.614 137.241 64.3494 137.558 64.8474C137.88 65.3455 138.401 65.5945 139.122 65.5945C139.837 65.5945 140.35 65.3484 140.66 64.8562C140.977 64.3582 141.135 63.6199 141.135 62.6414C141.135 61.6687 140.977 60.9392 140.66 60.4529C140.344 59.9666 139.825 59.7234 139.104 59.7234C138.39 59.7234 137.874 59.9666 137.558 60.4529C137.241 60.9333 137.083 61.6628 137.083 62.6414ZM143.877 62.6414C143.877 64.241 143.455 65.4919 142.611 66.3943C141.768 67.2966 140.593 67.7478 139.087 67.7478C138.144 67.7478 137.312 67.5427 136.591 67.1326C135.87 66.7166 135.316 66.1218 134.93 65.3484C134.543 64.575 134.35 63.6726 134.35 62.6414C134.35 61.0359 134.769 59.7878 135.606 58.8972C136.444 58.0066 137.622 57.5613 139.14 57.5613C140.083 57.5613 140.915 57.7664 141.636 58.1765C142.356 58.5867 142.91 59.1755 143.297 59.9431C143.684 60.7107 143.877 61.6101 143.877 62.6414ZM154.644 57.7458V59.1082L153.105 59.5037C153.387 59.9431 153.527 60.4353 153.527 60.9802C153.527 62.0349 153.158 62.8582 152.42 63.45C151.688 64.0359 150.668 64.3289 149.361 64.3289L148.878 64.3025L148.482 64.2585C148.207 64.4695 148.069 64.7039 148.069 64.9617C148.069 65.3484 148.562 65.5417 149.546 65.5417H151.216C152.294 65.5417 153.114 65.7732 153.677 66.2361C154.245 66.699 154.529 67.3787 154.529 68.2751C154.529 69.4236 154.049 70.3142 153.088 70.947C152.133 71.5798 150.759 71.8962 148.966 71.8962C147.595 71.8962 146.546 71.656 145.819 71.1755C145.099 70.7009 144.738 70.033 144.738 69.1716C144.738 68.5798 144.923 68.0847 145.292 67.6863C145.661 67.2878 146.203 67.0037 146.918 66.8337C146.643 66.7166 146.402 66.5261 146.197 66.2625C145.992 65.9929 145.89 65.7087 145.89 65.4099C145.89 65.0349 145.998 64.7244 146.215 64.4783C146.432 64.2263 146.745 63.9802 147.155 63.74C146.64 63.5173 146.229 63.1599 145.925 62.6677C145.626 62.1755 145.477 61.5955 145.477 60.9275C145.477 59.8552 145.825 59.0261 146.522 58.4402C147.22 57.8542 148.216 57.5613 149.511 57.5613C149.786 57.5613 150.111 57.5876 150.486 57.6404C150.867 57.6873 151.11 57.7224 151.216 57.7458H154.644ZM147.059 68.9607C147.059 69.3298 147.234 69.6199 147.586 69.8308C147.943 70.0417 148.441 70.1472 149.08 70.1472C150.041 70.1472 150.794 70.0154 151.339 69.7517C151.884 69.488 152.156 69.1277 152.156 68.6707C152.156 68.3015 151.995 68.0466 151.673 67.906C151.351 67.7654 150.853 67.6951 150.179 67.6951H148.79C148.298 67.6951 147.885 67.8093 147.551 68.0378C147.223 68.2722 147.059 68.5798 147.059 68.9607ZM148.034 60.9626C148.034 61.4958 148.154 61.9177 148.395 62.2283C148.641 62.5388 149.013 62.6941 149.511 62.6941C150.015 62.6941 150.384 62.5388 150.618 62.2283C150.853 61.9177 150.97 61.4958 150.97 60.9626C150.97 59.7791 150.483 59.1873 149.511 59.1873C148.526 59.1873 148.034 59.7791 148.034 60.9626ZM158.95 67.572H156.27V53.8962H158.95V67.572ZM165.841 59.4685C165.272 59.4685 164.827 59.6501 164.505 60.0134C164.183 60.3708 163.998 60.8806 163.951 61.5427H167.713C167.701 60.8806 167.528 60.3708 167.194 60.0134C166.86 59.6501 166.409 59.4685 165.841 59.4685ZM166.219 67.7478C164.637 67.7478 163.4 67.3113 162.51 66.4382C161.619 65.5652 161.174 64.3289 161.174 62.7292C161.174 61.0828 161.584 59.8113 162.404 58.9148C163.23 58.0125 164.37 57.5613 165.823 57.5613C167.212 57.5613 168.293 57.9568 169.066 58.7478C169.84 59.5388 170.227 60.6316 170.227 62.0261V63.3269H163.89C163.919 64.0886 164.145 64.6833 164.566 65.1111C164.988 65.5388 165.58 65.7527 166.342 65.7527C166.934 65.7527 167.493 65.6912 168.021 65.5681C168.548 65.4451 169.099 65.2488 169.673 64.9792V67.0535C169.204 67.2878 168.703 67.4607 168.17 67.572C167.637 67.6892 166.986 67.7478 166.219 67.7478ZM180.018 60.7693H180.914C181.752 60.7693 182.379 60.6052 182.795 60.2771C183.211 59.9431 183.419 59.4597 183.419 58.8269C183.419 58.1882 183.243 57.7166 182.892 57.4119C182.546 57.1072 182.001 56.9548 181.257 56.9548H180.018V60.7693ZM186.17 58.7302C186.17 60.113 185.736 61.1707 184.869 61.9031C184.008 62.6355 182.78 63.0017 181.187 63.0017H180.018V67.572H177.293V54.7224H181.397C182.956 54.7224 184.14 55.0593 184.948 55.7332C185.763 56.4011 186.17 57.4001 186.17 58.7302ZM191.065 67.572H188.385V53.8962H191.065V67.572ZM200.127 67.572L199.608 66.2361H199.538C199.087 66.8044 198.621 67.2 198.141 67.4226C197.666 67.6394 197.045 67.7478 196.277 67.7478C195.334 67.7478 194.59 67.4783 194.045 66.9392C193.506 66.4001 193.236 65.6326 193.236 64.6365C193.236 63.5935 193.6 62.8259 194.326 62.3337C195.059 61.8357 196.16 61.5603 197.631 61.5076L199.336 61.4548V61.0242C199.336 60.0281 198.826 59.53 197.807 59.53C197.021 59.53 196.099 59.7673 195.038 60.2419L194.15 58.4314C195.281 57.8396 196.535 57.5437 197.912 57.5437C199.23 57.5437 200.241 57.8308 200.944 58.405C201.647 58.9792 201.999 59.8523 201.999 61.0242V67.572H200.127ZM199.336 63.0193L198.299 63.0544C197.52 63.0779 196.939 63.2185 196.559 63.4763C196.178 63.7341 195.987 64.1267 195.987 64.6541C195.987 65.4099 196.421 65.7878 197.288 65.7878C197.909 65.7878 198.404 65.6091 198.773 65.2517C199.148 64.8943 199.336 64.4197 199.336 63.8279V63.0193ZM203.361 57.7458H206.297L208.151 63.2742C208.31 63.7546 208.418 64.323 208.477 64.9792H208.529C208.594 64.3757 208.72 63.8074 208.907 63.2742L210.727 57.7458H213.601L209.443 68.8289C209.062 69.8542 208.518 70.6218 207.809 71.1316C207.105 71.6414 206.282 71.8962 205.339 71.8962C204.876 71.8962 204.422 71.8464 203.977 71.7468V69.6199C204.299 69.696 204.65 69.7341 205.031 69.7341C205.506 69.7341 205.919 69.5876 206.271 69.2947C206.628 69.0076 206.906 68.571 207.105 67.9851L207.264 67.5017L203.361 57.7458Z" fill="white"/>
<g filter="url(#filter2_ii_131_3793)">
<path d="M73.1013 39.4848C72.8069 39.7964 72.6328 40.2801 72.6328 40.9065V63.2859C72.6328 63.9133 72.8069 64.3959 73.1013 64.7076L73.1762 64.7805L85.7128 52.2439V52.0962V51.9484L73.1762 39.4109L73.1013 39.4848Z" fill="url(#paint0_linear_131_3793)"/>
<path d="M89.8945 56.4232L85.7163 52.243V52.0952V51.9475L89.8955 47.7683L89.9896 47.8219L94.9409 50.6351C96.3545 51.4385 96.3545 52.753 94.9409 53.5574L89.9896 56.3706L89.8945 56.4232Z" fill="url(#paint1_linear_131_3793)"/>
<g filter="url(#filter3_i_131_3793)">
<path d="M89.9863 56.3698L85.712 52.0955L73.1016 64.7069C73.567 65.2007 74.3371 65.2614 75.2043 64.7696L89.9863 56.3698Z" fill="url(#paint2_linear_131_3793)"/>
</g>
<path d="M89.9863 47.8217L75.2043 39.4228C74.3371 38.93 73.567 38.9918 73.1016 39.4856L85.713 52.097L89.9863 47.8217Z" fill="url(#paint3_linear_131_3793)"/>
</g>
</g>
<defs>
<filter id="filter0_d_131_3793" x="47" y="18" width="219" height="76" filterUnits="userSpaceOnUse" color-interpolation-filters="sRGB">
<feFlood flood-opacity="0" result="BackgroundImageFix"/>
<feColorMatrix in="SourceAlpha" type="matrix" values="0 0 0 0 0 0 0 0 0 0 0 0 0 0 0 0 0 0 127 0" result="hardAlpha"/>
<feOffset dy="4"/>
<feGaussianBlur stdDeviation="2"/>
<feComposite in2="hardAlpha" operator="out"/>
<feColorMatrix type="matrix" values="0 0 0 0 0 0 0 0 0 0 0 0 0 0 0 0 0 0 0.25 0"/>
<feBlend mode="normal" in2="BackgroundImageFix" result="effect1_dropShadow_131_3793"/>
<feBlend mode="normal" in="SourceGraphic" in2="effect1_dropShadow_131_3793" result="shape"/>
</filter>
<filter id="filter1_dddd_131_3793" x="0" y="0" width="313" height="170" filterUnits="userSpaceOnUse" color-interpolation-filters="sRGB">
<feFlood flood-opacity="0" result="BackgroundImageFix"/>
<feColorMatrix in="SourceAlpha" type="matrix" values="0 0 0 0 0 0 0 0 0 0 0 0 0 0 0 0 0 0 127 0" result="hardAlpha"/>
<feOffset dy="1.4945"/>
<feGaussianBlur stdDeviation="1.15484"/>
<feColorMatrix type="matrix" values="0 0 0 0 0 0 0 0 0 0 0 0 0 0 0 0 0 0 0.0268173 0"/>
<feBlend mode="normal" in2="BackgroundImageFix" result="effect1_dropShadow_131_3793"/>
<feColorMatrix in="SourceAlpha" type="matrix" values="0 0 0 0 0 0 0 0 0 0 0 0 0 0 0 0 0 0 127 0" result="hardAlpha"/>
<feOffset dy="4.13211"/>
<feGaussianBlur stdDeviation="3.193"/>
<feColorMatrix type="matrix" values="0 0 0 0 0 0 0 0 0 0 0 0 0 0 0 0 0 0 0.0399899 0"/>
<feBlend mode="normal" in2="effect1_dropShadow_131_3793" result="effect2_dropShadow_131_3793"/>
<feColorMatrix in="SourceAlpha" type="matrix" values="0 0 0 0 0 0 0 0 0 0 0 0 0 0 0 0 0 0 127 0" result="hardAlpha"/>
<feOffset dy="9.94853"/>
<feGaussianBlur stdDeviation="7.6875"/>
<feColorMatrix type="matrix" values="0 0 0 0 0 0 0 0 0 0 0 0 0 0 0 0 0 0 0.0582218 0"/>
<feBlend mode="normal" in2="effect2_dropShadow_131_3793" result="effect3_dropShadow_131_3793"/>
<feColorMatrix in="SourceAlpha" type="matrix" values="0 0 0 0 0 0 0 0 0 0 0 0 0 0 0 0 0 0 127 0" result="hardAlpha"/>
<feOffset dy="33"/>
<feGaussianBlur stdDeviation="25.5"/>
<feColorMatrix type="matrix" values="0 0 0 0 0 0 0 0 0 0 0 0 0 0 0 0 0 0 0.08 0"/>
<feBlend mode="normal" in2="effect3_dropShadow_131_3793" result="effect4_dropShadow_131_3793"/>
<feBlend mode="normal" in="SourceGraphic" in2="effect4_dropShadow_131_3793" result="shape"/>
</filter>
<filter id="filter2_ii_131_3793" x="72.6328" y="39.0828" width="23.3682" height="26.0266" filterUnits="userSpaceOnUse" color-interpolation-filters="sRGB">
<feFlood flood-opacity="0" result="BackgroundImageFix"/>
<feBlend mode="normal" in="SourceGraphic" in2="BackgroundImageFix" result="shape"/>
<feColorMatrix in="SourceAlpha" type="matrix" values="0 0 0 0 0 0 0 0 0 0 0 0 0 0 0 0 0 0 127 0" result="hardAlpha"/>
<feOffset dy="-0.15"/>
<feComposite in2="hardAlpha" operator="arithmetic" k2="-1" k3="1"/>
<feColorMatrix type="matrix" values="0 0 0 0 0 0 0 0 0 0 0 0 0 0 0 0 0 0 0.12 0"/>
<feBlend mode="normal" in2="shape" result="effect1_innerShadow_131_3793"/>
<feColorMatrix in="SourceAlpha" type="matrix" values="0 0 0 0 0 0 0 0 0 0 0 0 0 0 0 0 0 0 127 0" result="hardAlpha"/>
<feOffset dy="0.15"/>
<feComposite in2="hardAlpha" operator="arithmetic" k2="-1" k3="1"/>
<feColorMatrix type="matrix" values="0 0 0 0 1 0 0 0 0 1 0 0 0 0 1 0 0 0 0.25 0"/>
<feBlend mode="normal" in2="effect1_innerShadow_131_3793" result="effect2_innerShadow_131_3793"/>
</filter>
<filter id="filter3_i_131_3793" x="73.1016" y="52.0955" width="16.8848" height="13.0139" filterUnits="userSpaceOnUse" color-interpolation-filters="sRGB">
<feFlood flood-opacity="0" result="BackgroundImageFix"/>
<feBlend mode="normal" in="SourceGraphic" in2="BackgroundImageFix" result="shape"/>
<feColorMatrix in="SourceAlpha" type="matrix" values="0 0 0 0 0 0 0 0 0 0 0 0 0 0 0 0 0 0 127 0" result="hardAlpha"/>
<feOffset dy="-0.15"/>
<feComposite in2="hardAlpha" operator="arithmetic" k2="-1" k3="1"/>
<feColorMatrix type="matrix" values="0 0 0 0 0 0 0 0 0 0 0 0 0 0 0 0 0 0 0.08 0"/>
<feBlend mode="normal" in2="shape" result="effect1_innerShadow_131_3793"/>
</filter>
<linearGradient id="paint0_linear_131_3793" x1="84.6015" y1="40.6697" x2="67.6196" y2="57.6516" gradientUnits="userSpaceOnUse">
<stop stop-color="#00A0FF"/>
<stop offset="0.0066" stop-color="#00A1FF"/>
<stop offset="0.2601" stop-color="#00BEFF"/>
<stop offset="0.5122" stop-color="#00D2FF"/>
<stop offset="0.7604" stop-color="#00DFFF"/>
<stop offset="1" stop-color="#00E3FF"/>
</linearGradient>
<linearGradient id="paint1_linear_131_3793" x1="96.781" y1="52.0952" x2="72.297" y2="52.0952" gradientUnits="userSpaceOnUse">
<stop stop-color="#FFE000"/>
<stop offset="0.4087" stop-color="#FFBD00"/>
<stop offset="0.7754" stop-color="#FFA500"/>
<stop offset="1" stop-color="#FF9C00"/>
</linearGradient>
<linearGradient id="paint2_linear_131_3793" x1="87.6651" y1="54.4167" x2="64.6355" y2="77.4462" gradientUnits="userSpaceOnUse">
<stop stop-color="#FF3A44"/>
<stop offset="1" stop-color="#C31162"/>
</linearGradient>
<linearGradient id="paint3_linear_131_3793" x1="69.9256" y1="32.0357" x2="80.2089" y2="42.319" gradientUnits="userSpaceOnUse">
<stop stop-color="#32A071"/>
<stop offset="0.0685" stop-color="#2DA771"/>
<stop offset="0.4762" stop-color="#15CF74"/>
<stop offset="0.8009" stop-color="#06E775"/>
<stop offset="1" stop-color="#00F076"/>
</linearGradient>
</defs>
</svg>
