<svg width="31" height="31" viewBox="0 0 31 31" fill="none" xmlns="http://www.w3.org/2000/svg">
<circle cx="15.5" cy="15.5" r="15.5" fill="#4C74F4"/>
<path d="M18.6425 8H12.3575C9.6275 8 8 9.61934 8 12.3356V18.5817C8 21.3054 9.6275 22.9248 12.3575 22.9248H18.635C21.365 22.9248 22.9925 21.3054 22.9925 18.5891V12.3356C23 9.61934 21.3725 8 18.6425 8ZM15.5 18.3578C13.895 18.3578 12.59 17.0593 12.59 15.4624C12.59 13.8654 13.895 12.567 15.5 12.567C17.105 12.567 18.41 13.8654 18.41 15.4624C18.41 17.0593 17.105 18.3578 15.5 18.3578ZM19.94 11.6416C19.9025 11.7312 19.85 11.8133 19.7825 11.8879C19.7075 11.9551 19.625 12.0073 19.535 12.0446C19.445 12.0819 19.3475 12.1043 19.25 12.1043C19.0475 12.1043 18.86 12.0297 18.7175 11.8879C18.65 11.8133 18.5975 11.7312 18.56 11.6416C18.5225 11.5521 18.5 11.4551 18.5 11.3581C18.5 11.2611 18.5225 11.164 18.56 11.0745C18.5975 10.9775 18.65 10.9029 18.7175 10.8282C18.89 10.6566 19.1525 10.5745 19.3925 10.6268C19.445 10.6342 19.49 10.6491 19.535 10.6715C19.58 10.6865 19.625 10.7088 19.67 10.7387C19.7075 10.7611 19.745 10.7984 19.7825 10.8282C19.85 10.9029 19.9025 10.9775 19.94 11.0745C19.9775 11.164 20 11.2611 20 11.3581C20 11.4551 19.9775 11.5521 19.94 11.6416Z" fill="white"/>
</svg>
