<svg width="14" height="14" viewBox="0 0 14 14" fill="none" xmlns="http://www.w3.org/2000/svg">
<path fill-rule="evenodd" clip-rule="evenodd" d="M4.536 0C4.75957 0.0080776 4.97397 0.0908897 5.14493 0.235194C5.31588 0.379498 5.43351 0.576959 5.479 0.796L7.139 8.764L8.536 3.732C8.59251 3.52861 8.71193 3.34831 8.87716 3.21694C9.0424 3.08557 9.24497 3.00985 9.45586 3.00064C9.66676 2.99143 9.87516 3.04919 10.0512 3.16565C10.2273 3.28212 10.362 3.45131 10.436 3.649L11.693 7H13C13.2652 7 13.5196 7.10536 13.7071 7.29289C13.8946 7.48043 14 7.73478 14 8C14 8.26522 13.8946 8.51957 13.7071 8.70711C13.5196 8.89464 13.2652 9 13 9H11C10.7965 8.99992 10.5978 8.93775 10.4306 8.82178C10.2633 8.70581 10.1354 8.54157 10.064 8.351L9.642 7.226L7.964 13.268C7.90415 13.4842 7.77332 13.6741 7.59255 13.807C7.41177 13.9399 7.19156 14.0081 6.96731 14.0007C6.74307 13.9933 6.52782 13.9107 6.35618 13.7662C6.18454 13.6217 6.06649 13.4237 6.021 13.204L4.348 5.173L3.462 8.275C3.40223 8.48398 3.27599 8.66779 3.10241 8.7986C2.92883 8.92942 2.71736 9.00012 2.5 9H1C0.734784 9 0.48043 8.89464 0.292893 8.70711C0.105357 8.51957 0 8.26522 0 8C0 7.73478 0.105357 7.48043 0.292893 7.29289C0.48043 7.10536 0.734784 7 1 7H1.746L3.538 0.725C3.59953 0.510159 3.73125 0.322119 3.91214 0.190891C4.09304 0.059663 4.31267 -0.00719043 4.536 0.001V0Z" fill="#051441"/>
</svg>
