<svg width="151" height="59" viewBox="0 0 151 59" fill="none" xmlns="http://www.w3.org/2000/svg">
<path d="M74.542 35.252C73.546 35.252 72.622 35.096 71.77 34.784C70.93 34.46 70.198 34.004 69.574 33.416C68.962 32.828 68.482 32.138 68.134 31.346C67.786 30.542 67.612 29.66 67.612 28.7C67.612 27.74 67.786 26.864 68.134 26.072C68.482 25.268 68.962 24.572 69.574 23.984C70.198 23.396 70.93 22.946 71.77 22.634C72.622 22.31 73.546 22.148 74.542 22.148C75.706 22.148 76.744 22.352 77.656 22.76C78.58 23.168 79.348 23.756 79.96 24.524L77.692 26.576C77.284 26.096 76.834 25.73 76.342 25.478C75.862 25.226 75.322 25.1 74.722 25.1C74.206 25.1 73.732 25.184 73.3 25.352C72.868 25.52 72.496 25.766 72.184 26.09C71.884 26.402 71.644 26.78 71.464 27.224C71.296 27.668 71.212 28.16 71.212 28.7C71.212 29.24 71.296 29.732 71.464 30.176C71.644 30.62 71.884 31.004 72.184 31.328C72.496 31.64 72.868 31.88 73.3 32.048C73.732 32.216 74.206 32.3 74.722 32.3C75.322 32.3 75.862 32.174 76.342 31.922C76.834 31.67 77.284 31.304 77.692 30.824L79.96 32.876C79.348 33.632 78.58 34.22 77.656 34.64C76.744 35.048 75.706 35.252 74.542 35.252ZM87.6394 35.252C86.6314 35.252 85.7014 35.09 84.8494 34.766C83.9974 34.442 83.2534 33.986 82.6174 33.398C81.9934 32.798 81.5074 32.102 81.1594 31.31C80.8114 30.518 80.6374 29.648 80.6374 28.7C80.6374 27.752 80.8114 26.882 81.1594 26.09C81.5074 25.298 81.9934 24.608 82.6174 24.02C83.2534 23.42 83.9974 22.958 84.8494 22.634C85.7014 22.31 86.6314 22.148 87.6394 22.148C88.6594 22.148 89.5894 22.31 90.4294 22.634C91.2814 22.958 92.0194 23.42 92.6434 24.02C93.2674 24.608 93.7534 25.298 94.1014 26.09C94.4614 26.882 94.6414 27.752 94.6414 28.7C94.6414 29.648 94.4614 30.524 94.1014 31.328C93.7534 32.12 93.2674 32.81 92.6434 33.398C92.0194 33.986 91.2814 34.442 90.4294 34.766C89.5894 35.09 88.6594 35.252 87.6394 35.252ZM87.6394 32.3C88.1194 32.3 88.5634 32.216 88.9714 32.048C89.3914 31.88 89.7514 31.64 90.0514 31.328C90.3634 31.004 90.6034 30.62 90.7714 30.176C90.9514 29.732 91.0414 29.24 91.0414 28.7C91.0414 28.148 90.9514 27.656 90.7714 27.224C90.6034 26.78 90.3634 26.402 90.0514 26.09C89.7514 25.766 89.3914 25.52 88.9714 25.352C88.5634 25.184 88.1194 25.1 87.6394 25.1C87.1594 25.1 86.7094 25.184 86.2894 25.352C85.8814 25.52 85.5214 25.766 85.2094 26.09C84.9094 26.402 84.6694 26.78 84.4894 27.224C84.3214 27.656 84.2374 28.148 84.2374 28.7C84.2374 29.24 84.3214 29.732 84.4894 30.176C84.6694 30.62 84.9094 31.004 85.2094 31.328C85.5214 31.64 85.8814 31.88 86.2894 32.048C86.7094 32.216 87.1594 32.3 87.6394 32.3ZM102.862 35.252C101.854 35.252 100.924 35.09 100.072 34.766C99.22 34.442 98.476 33.986 97.84 33.398C97.216 32.798 96.73 32.102 96.382 31.31C96.034 30.518 95.86 29.648 95.86 28.7C95.86 27.752 96.034 26.882 96.382 26.09C96.73 25.298 97.216 24.608 97.84 24.02C98.476 23.42 99.22 22.958 100.072 22.634C100.924 22.31 101.854 22.148 102.862 22.148C103.882 22.148 104.812 22.31 105.652 22.634C106.504 22.958 107.242 23.42 107.866 24.02C108.49 24.608 108.976 25.298 109.324 26.09C109.684 26.882 109.864 27.752 109.864 28.7C109.864 29.648 109.684 30.524 109.324 31.328C108.976 32.12 108.49 32.81 107.866 33.398C107.242 33.986 106.504 34.442 105.652 34.766C104.812 35.09 103.882 35.252 102.862 35.252ZM102.862 32.3C103.342 32.3 103.786 32.216 104.194 32.048C104.614 31.88 104.974 31.64 105.274 31.328C105.586 31.004 105.826 30.62 105.994 30.176C106.174 29.732 106.264 29.24 106.264 28.7C106.264 28.148 106.174 27.656 105.994 27.224C105.826 26.78 105.586 26.402 105.274 26.09C104.974 25.766 104.614 25.52 104.194 25.352C103.786 25.184 103.342 25.1 102.862 25.1C102.382 25.1 101.932 25.184 101.512 25.352C101.104 25.52 100.744 25.766 100.432 26.09C100.132 26.402 99.892 26.78 99.712 27.224C99.544 27.656 99.46 28.148 99.46 28.7C99.46 29.24 99.544 29.732 99.712 30.176C99.892 30.62 100.132 31.004 100.432 31.328C100.744 31.64 101.104 31.88 101.512 32.048C101.932 32.216 102.382 32.3 102.862 32.3ZM111.731 35V22.4H117.491C118.643 22.4 119.633 22.586 120.461 22.958C121.301 23.33 121.949 23.87 122.405 24.578C122.861 25.274 123.089 26.102 123.089 27.062C123.089 28.01 122.861 28.832 122.405 29.528C121.949 30.224 121.301 30.764 120.461 31.148C119.633 31.52 118.643 31.706 117.491 31.706H113.711L115.295 30.158V35H111.731ZM115.295 30.536L113.711 28.898H117.275C118.019 28.898 118.571 28.736 118.931 28.412C119.303 28.088 119.489 27.638 119.489 27.062C119.489 26.474 119.303 26.018 118.931 25.694C118.571 25.37 118.019 25.208 117.275 25.208H113.711L115.295 23.57V30.536ZM128.102 27.278H133.952V29.942H128.102V27.278ZM128.354 32.246H134.942V35H124.826V22.4H134.708V25.154H128.354V32.246ZM136.92 35V22.4H142.68C143.832 22.4 144.822 22.586 145.65 22.958C146.49 23.33 147.138 23.87 147.594 24.578C148.05 25.274 148.278 26.102 148.278 27.062C148.278 28.01 148.05 28.832 147.594 29.528C147.138 30.212 146.49 30.74 145.65 31.112C144.822 31.472 143.832 31.652 142.68 31.652H138.9L140.484 30.158V35H136.92ZM144.714 35L141.582 30.41H145.38L148.53 35H144.714ZM140.484 30.536L138.9 28.898H142.464C143.208 28.898 143.76 28.736 144.12 28.412C144.492 28.088 144.678 27.638 144.678 27.062C144.678 26.474 144.492 26.018 144.12 25.694C143.76 25.37 143.208 25.208 142.464 25.208H138.9L140.484 23.57V30.536Z" fill="white"/>
<path d="M26.7388 28.703L7.20508 20.3381V39.2001C7.20508 40.8403 8.16575 42.3165 9.60676 42.9725L26.7388 51.1734H26.8989V28.703H26.7388Z" fill="#3FB5FF"/>
<path d="M28.5002 25.5868L48.6744 16.8938C48.3542 16.5658 47.8738 16.2378 47.3935 15.9097L30.2615 7.70885C28.9806 7.05278 27.6997 7.05278 26.4188 7.70885L9.28676 15.9097C8.80642 16.0737 8.4862 16.4018 8.00586 16.8938L28.5002 25.5868Z" fill="#5051F9"/>
<path d="M30.2617 28.703V51.0094H30.4218L47.5538 42.8085C48.9949 42.1525 49.9555 40.6763 49.9555 39.2001V20.3381L30.2617 28.703Z" fill="#C1C9EE"/>
</svg>
