<svg width="107" height="40" viewBox="0 0 107 40" fill="none" xmlns="http://www.w3.org/2000/svg">
<path d="M57.8 24H62.4L56.38 16.2L62.1 10H57.74L52.32 15.82V10H48.4V24H52.32V20.5L53.8 18.92L57.8 24ZM63.4391 24H67.3991V10H63.4391V24ZM73.1964 24H77.1564V13.14H81.4364V10H68.8964V13.14H73.1964V24ZM86.8317 20.94V18.38H93.0517V15.42H86.8317V13.06H93.8917V10H82.9117V24H94.1517V20.94H86.8317Z" fill="#23235F"/>
<path d="M15.6402 17.1568L0.561523 10.6997V25.2599C0.561523 26.526 1.3031 27.6654 2.41546 28.1719L15.6402 34.5024H15.7638V17.1568H15.6402Z" fill="#3FB5FF"/>
<path d="M16.9999 14.7511L32.5729 8.04079C32.3258 7.78757 31.955 7.53435 31.5842 7.28113L18.3595 0.950631C17.3707 0.444191 16.3819 0.444191 15.3932 0.950631L2.16845 7.28113C1.79767 7.40774 1.55047 7.66096 1.17969 8.04079L16.9999 14.7511Z" fill="#5051F9"/>
<path d="M18.3594 17.1568V34.3758H18.483L31.7077 28.0453C32.82 27.5388 33.5616 26.3994 33.5616 25.2599V10.6997L18.3594 17.1568Z" fill="#C1C9EE"/>
<path d="M66.8057 36V28.126H69.7598C70.3613 28.126 70.8429 28.2065 71.2046 28.3677C71.5698 28.5252 71.8545 28.7705 72.0586 29.1035C72.2663 29.4329 72.3701 29.7785 72.3701 30.1401C72.3701 30.4767 72.2788 30.7936 72.0962 31.0908C71.9136 31.388 71.6379 31.6279 71.269 31.8105C71.7453 31.9502 72.1105 32.1883 72.3647 32.5249C72.6226 32.8615 72.7515 33.259 72.7515 33.7173C72.7515 34.0861 72.6727 34.4299 72.5151 34.7485C72.3612 35.0636 72.1696 35.3071 71.9404 35.479C71.7113 35.6509 71.423 35.7816 71.0757 35.8711C70.7319 35.957 70.3094 36 69.8081 36H66.8057ZM67.8477 31.4346H69.5503C70.0122 31.4346 70.3434 31.4041 70.5439 31.3433C70.8089 31.2645 71.0076 31.1338 71.1401 30.9512C71.2762 30.7686 71.3442 30.5394 71.3442 30.2637C71.3442 30.0023 71.2816 29.7731 71.1562 29.5762C71.0309 29.3757 70.8519 29.2396 70.6191 29.168C70.3864 29.0928 69.9871 29.0552 69.4214 29.0552H67.8477V31.4346ZM67.8477 35.0708H69.8081C70.1447 35.0708 70.381 35.0583 70.5171 35.0332C70.757 34.9902 70.9575 34.9186 71.1187 34.8184C71.2798 34.7181 71.4123 34.5731 71.5161 34.3833C71.62 34.1899 71.6719 33.9679 71.6719 33.7173C71.6719 33.4237 71.5967 33.1694 71.4463 32.9546C71.2959 32.7362 71.0864 32.584 70.8179 32.498C70.5529 32.4085 70.1698 32.3638 69.6685 32.3638H67.8477V35.0708ZM75.252 36V28.126H80.9454V29.0552H76.294V31.4668H80.65V32.3906H76.294V35.0708H81.128V36H75.252ZM85.6159 36V29.0552H83.0216V28.126H89.2629V29.0552H86.6579V36H85.6159ZM89.7009 36L92.7248 28.126H93.8474L97.0701 36H95.883L94.9646 33.6152H91.6721L90.8074 36H89.7009ZM91.9729 32.7666H94.6423L93.8205 30.5859C93.5699 29.9235 93.3837 29.3792 93.262 28.9531C93.1617 29.458 93.0203 29.9593 92.8376 30.457L91.9729 32.7666Z" fill="black"/>
</svg>
