<svg width="24" height="24" viewBox="0 0 24 24" fill="none" xmlns="http://www.w3.org/2000/svg">
<path d="M3 3.99994V18.2999C3 19.6999 4.2 20.8999 5.6 20.8999H20.2" stroke="white" stroke-width="2" stroke-miterlimit="10" stroke-linecap="round"/>
<path d="M6.70579 17.3058C6.60579 17.3058 6.40579 17.2058 6.30579 17.1058C6.00579 16.9058 6.00579 16.5058 6.20579 16.2058L10.1058 11.6058C10.5058 11.1058 11.1058 10.8058 11.8058 10.8058C12.4058 10.8058 13.1058 11.0058 13.6058 11.5058L14.4058 12.3058C14.6058 12.5058 14.9058 12.6058 15.2058 12.6058C15.5058 12.6058 15.8058 12.5058 16.0058 12.2058L19.9058 7.60584C20.1058 7.30584 20.5058 7.30584 20.8058 7.50584C21.1058 7.70584 21.1058 8.10584 20.9058 8.40584L17.0058 13.0058C16.6058 13.5058 16.0058 13.8058 15.3058 13.8058C14.7058 13.8058 14.0058 13.6058 13.5058 13.1058L12.7058 12.3058C12.5058 12.1058 12.2058 12.0058 11.9058 12.0058C11.6058 12.0058 11.3058 12.1058 11.1058 12.4058L7.20579 17.0058C7.10579 17.2058 6.90579 17.3058 6.70579 17.3058Z" stroke="white" stroke-width="1.5" stroke-miterlimit="10"/>
</svg>
