<svg width="57" height="48" viewBox="0 0 57 48" fill="none" xmlns="http://www.w3.org/2000/svg">
<circle cx="18" cy="22" r="18" fill="#2E4FBA" fill-opacity="0.13"/>
<mask id="mask0_153_2185" style="mask-type:alpha" maskUnits="userSpaceOnUse" x="27" y="8" width="30" height="32">
<path d="M49.9908 16.0374C49.9908 20.3428 46.5006 23.8331 42.1951 23.8331C37.8896 23.8331 34.3994 20.3428 34.3994 16.0374C34.3994 11.732 37.8896 8.2417 42.1951 8.2417C46.5006 8.2417 49.9908 11.732 49.9908 16.0374Z" fill="#5B073A"/>
<path d="M27.1045 39.4246C27.1045 31.6038 33.4446 25.2637 41.2655 25.2637H42.8389C50.6598 25.2637 56.9998 31.6038 56.9998 39.4246H27.1045Z" fill="#5B073A"/>
</mask>
<g mask="url(#mask0_153_2185)">
<path d="M49.9908 16.0374C49.9908 20.3428 46.5006 23.8331 42.1951 23.8331C37.8896 23.8331 34.3994 20.3428 34.3994 16.0374C34.3994 11.732 37.8896 8.2417 42.1951 8.2417C46.5006 8.2417 49.9908 11.732 49.9908 16.0374Z" fill="#736BC4"/>
<path d="M27.1045 39.4246C27.1045 31.6038 33.4446 25.2637 41.2655 25.2637H42.8389C50.6598 25.2637 56.9998 31.6038 56.9998 39.4246H27.1045Z" fill="#736BC4"/>
</g>
<path d="M31.8863 16.0374C31.8863 20.3428 28.3961 23.8331 24.0906 23.8331C19.7852 23.8331 16.2949 20.3428 16.2949 16.0374C16.2949 11.732 19.7852 8.2417 24.0906 8.2417C28.3961 8.2417 31.8863 11.732 31.8863 16.0374Z" fill="#827ADD"/>
<path d="M9 39.4246C9 31.6038 15.3401 25.2637 23.161 25.2637H24.7344C32.5553 25.2637 38.8955 31.6038 38.8955 39.4246H9Z" fill="#827ADD"/>
</svg>
