<svg width="401" height="464" viewBox="0 0 401 464" fill="none" xmlns="http://www.w3.org/2000/svg">
<g filter="url(#filter0_d_153_2559)">
<rect x="15" y="11" width="371" height="434" rx="8" fill="#F3F4F8"/>
<rect x="15.5" y="11.5" width="370" height="433" rx="7.5" stroke="#E6E6E6"/>
</g>
<rect x="49" y="77" width="303" height="342" rx="5" fill="white"/>
<path d="M78.9478 106.15L82.1279 102.589V109H83.4609V100.38H82.2676L78.8018 104.48L75.3169 100.38H74.1172V109H75.4502V102.602L78.6558 106.15H78.9478ZM88.0376 107.705L86.1396 102.906H84.7559L87.3838 109.089L87.2505 109.438C86.9775 110.149 86.6475 110.562 85.8286 110.562C85.5112 110.562 85.1812 110.479 85.0098 110.403L84.8765 111.444C84.9844 111.501 85.3462 111.666 85.8857 111.666C87.3711 111.666 87.8979 110.904 88.3867 109.774L91.3066 102.906H89.9229L88.0376 107.705ZM99.9902 102.97H98.6572L97.2354 107.769L95.896 102.906H94.5693L96.3657 109H98.0796L99.3237 104.665L100.568 109H102.282L104.078 102.906H102.751L101.412 107.769L99.9902 102.97ZM104.77 105.953C104.77 107.737 106.154 109.127 108.007 109.127C109.861 109.127 111.245 107.737 111.245 105.953C111.245 104.169 109.861 102.779 108.007 102.779C106.154 102.779 104.77 104.169 104.77 105.953ZM106.027 105.953C106.027 104.83 106.858 103.96 108.007 103.96C109.156 103.96 109.988 104.83 109.988 105.953C109.988 107.077 109.156 107.946 108.007 107.946C106.858 107.946 106.027 107.077 106.027 105.953ZM113.955 102.906H112.692V109H113.955V105.68C113.955 104.303 114.831 103.947 115.504 103.947C115.904 103.947 116.177 104.062 116.247 104.087L116.38 102.932C116.38 102.932 116.018 102.779 115.542 102.779C114.875 102.779 114.298 103.071 113.955 103.738V102.906ZM118.709 100.062H117.453V109H118.709V106.372H119.795L121.661 109H123.096L120.823 105.858L122.766 102.906H121.382L119.833 105.306H118.709V100.062ZM129.05 105.325C128.282 105.166 127.996 104.976 127.996 104.595C127.996 104.144 128.453 103.884 129.374 103.884C130.008 103.884 130.732 104.023 131.227 104.239L131.36 103.147C130.853 102.925 130.059 102.779 129.31 102.779C127.787 102.779 126.771 103.541 126.771 104.576C126.771 105.515 127.342 106.131 128.415 106.347L129.316 106.531C130.104 106.689 130.434 106.912 130.434 107.324C130.434 107.794 130.008 108.022 129.094 108.022C128.415 108.022 127.634 107.857 127.012 107.584L126.86 108.67C127.387 108.956 128.25 109.127 129.177 109.127C130.656 109.127 131.659 108.537 131.659 107.305C131.659 106.245 130.999 105.725 129.761 105.471L129.05 105.325ZM136.496 102.779C135.461 102.779 134.775 103.16 134.325 103.738V102.906H133.068V111.539H134.325V108.168C134.775 108.746 135.461 109.127 136.496 109.127C138.229 109.127 139.555 107.857 139.555 105.985C139.555 104.112 138.229 102.779 136.496 102.779ZM134.331 105.985C134.331 104.861 135.169 103.909 136.343 103.909C137.518 103.909 138.298 104.861 138.298 105.985C138.298 107.108 137.518 107.997 136.343 107.997C135.175 107.997 134.331 107.108 134.331 105.985ZM143.668 109.127C144.703 109.127 145.389 108.746 145.839 108.168V109H147.096V102.906H145.839V103.738C145.389 103.16 144.703 102.779 143.668 102.779C141.936 102.779 140.609 104.049 140.609 105.921C140.609 107.794 141.936 109.127 143.668 109.127ZM145.833 105.921C145.833 107.045 144.995 107.997 143.821 107.997C142.646 107.997 141.866 107.045 141.866 105.921C141.866 104.798 142.646 103.909 143.821 103.909C144.989 103.909 145.833 104.798 145.833 105.921ZM148.55 105.921C148.55 107.826 149.959 109.127 152.016 109.127C152.701 109.127 153.33 108.956 153.914 108.727L153.723 107.584C153.241 107.807 152.587 107.959 152.016 107.959C150.702 107.959 149.807 107.121 149.807 105.921C149.807 104.76 150.702 103.947 152.003 103.947C152.701 103.947 153.266 104.112 153.698 104.309L153.831 103.186C153.545 103.027 152.809 102.779 152.003 102.779C149.953 102.779 148.55 104.055 148.55 105.921ZM160.344 107.388C159.531 107.775 158.922 107.959 158.211 107.959C157.03 107.959 156.256 107.407 156.034 106.41H160.775C161.137 104.43 159.861 102.779 157.881 102.779C156.059 102.779 154.745 104.138 154.745 105.953C154.745 107.832 156.161 109.127 158.211 109.127C159.062 109.127 159.83 108.93 160.534 108.53L160.344 107.388ZM156.072 105.407C156.167 104.525 156.916 103.928 157.919 103.928C158.922 103.928 159.557 104.525 159.639 105.407H156.072Z" fill="#3A4B68"/>
<rect x="15" y="35" width="371" height="24" fill="#026AB8"/>
<path d="M31.9743 47.5607L26.1484 45.0659V50.6914C26.1484 51.1806 26.435 51.6209 26.8647 51.8165L31.9743 54.2624H32.022V47.5607H31.9743Z" fill="#1D87D6"/>
<path d="M32.5001 46.6311L38.5169 44.0385C38.4214 43.9406 38.2781 43.8428 38.1349 43.745L33.0253 41.2991C32.6433 41.1034 32.2613 41.1034 31.8793 41.2991L26.7697 43.745C26.6265 43.7939 26.531 43.8917 26.3877 44.0385L32.5001 46.6311Z" fill="#1D87D6"/>
<path d="M33.0249 47.5607V54.2135H33.0727L38.1822 51.7676C38.612 51.5719 38.8985 51.1317 38.8985 50.6914V45.0659L33.0249 47.5607Z" fill="#1D87D6"/>
<path d="M15.5 14C15.5 12.6193 16.6193 11.5 18 11.5H383C384.381 11.5 385.5 12.6193 385.5 14V34.5H15.5V14Z" fill="#F3F3F3" stroke="#EEEEEE"/>
<circle cx="369" cy="48" r="8" fill="#1D87D6"/>
<rect x="265" y="42" width="75" height="12" rx="2" fill="#1D87D6"/>
<circle cx="88" cy="144" r="16" fill="#EEF0F5"/>
<rect x="112" y="130" width="208" height="10" rx="2" fill="#EEF0F5"/>
<rect x="112" y="149" width="49" height="10" rx="2" fill="#EEF0F5"/>
<line x1="75" y1="181.5" x2="321" y2="181.5" stroke="#F2F1F1"/>
<circle cx="88" cy="218" r="16" fill="#EEF0F5"/>
<rect x="112" y="204" width="208" height="10" rx="2" fill="#EEF0F5"/>
<rect x="112" y="223" width="49" height="10" rx="2" fill="#EEF0F5"/>
<line x1="75" y1="255.5" x2="321" y2="255.5" stroke="#F2F1F1"/>
<circle cx="88" cy="295" r="16" fill="#EEF0F5"/>
<rect x="112" y="281" width="208" height="10" rx="2" fill="#EEF0F5"/>
<rect x="112" y="300" width="49" height="10" rx="2" fill="#EEF0F5"/>
<line x1="75" y1="332.5" x2="321" y2="332.5" stroke="#F2F1F1"/>
<circle cx="88" cy="371" r="16" fill="#EEF0F5"/>
<rect x="112" y="357" width="208" height="10" rx="2" fill="#EEF0F5"/>
<rect x="112" y="376" width="49" height="10" rx="2" fill="#EEF0F5"/>
<circle cx="348" cy="23" r="4" fill="#D9D9D9"/>
<circle cx="359" cy="23" r="4" fill="#D9D9D9"/>
<circle cx="371" cy="23" r="4" fill="#D9D9D9"/>
<path d="M157.521 24.9214C157.521 26.8257 158.93 28.127 160.986 28.127C161.672 28.127 162.3 27.9556 162.884 27.7271L162.694 26.5845C162.211 26.8066 161.558 26.959 160.986 26.959C159.672 26.959 158.777 26.1211 158.777 24.9214C158.777 23.7598 159.672 22.9473 160.974 22.9473C161.672 22.9473 162.237 23.1123 162.668 23.3091L162.802 22.1855C162.516 22.0269 161.78 21.7793 160.974 21.7793C158.923 21.7793 157.521 23.0552 157.521 24.9214ZM163.709 24.9531C163.709 26.7368 165.093 28.127 166.947 28.127C168.8 28.127 170.184 26.7368 170.184 24.9531C170.184 23.1694 168.8 21.7793 166.947 21.7793C165.093 21.7793 163.709 23.1694 163.709 24.9531ZM164.966 24.9531C164.966 23.8296 165.798 22.96 166.947 22.96C168.096 22.96 168.927 23.8296 168.927 24.9531C168.927 26.0767 168.096 26.9463 166.947 26.9463C165.798 26.9463 164.966 26.0767 164.966 24.9531ZM171.212 24.9531C171.212 26.7368 172.596 28.127 174.45 28.127C176.303 28.127 177.687 26.7368 177.687 24.9531C177.687 23.1694 176.303 21.7793 174.45 21.7793C172.596 21.7793 171.212 23.1694 171.212 24.9531ZM172.469 24.9531C172.469 23.8296 173.301 22.96 174.45 22.96C175.599 22.96 176.43 23.8296 176.43 24.9531C176.43 26.0767 175.599 26.9463 174.45 26.9463C173.301 26.9463 172.469 26.0767 172.469 24.9531ZM182.562 21.7793C181.527 21.7793 180.842 22.1602 180.391 22.7378V21.9062H179.134V30.5391H180.391V27.1685C180.842 27.7461 181.527 28.127 182.562 28.127C184.295 28.127 185.622 26.8574 185.622 24.9849C185.622 23.1123 184.295 21.7793 182.562 21.7793ZM180.397 24.9849C180.397 23.8613 181.235 22.9092 182.41 22.9092C183.584 22.9092 184.365 23.8613 184.365 24.9849C184.365 26.1084 183.584 26.9971 182.41 26.9971C181.242 26.9971 180.397 26.1084 180.397 24.9849ZM192.268 26.3877C191.455 26.7749 190.846 26.959 190.135 26.959C188.954 26.959 188.18 26.4067 187.958 25.4102H192.699C193.061 23.4297 191.785 21.7793 189.805 21.7793C187.983 21.7793 186.669 23.1377 186.669 24.9531C186.669 26.832 188.084 28.127 190.135 28.127C190.985 28.127 191.753 27.9302 192.458 27.5303L192.268 26.3877ZM187.996 24.4072C188.091 23.5249 188.84 22.9282 189.843 22.9282C190.846 22.9282 191.48 23.5249 191.563 24.4072H187.996ZM195.479 21.9062H194.216V28H195.479V24.6802C195.479 23.3027 196.355 22.9473 197.028 22.9473C197.428 22.9473 197.701 23.0615 197.771 23.0869L197.904 21.9316C197.904 21.9316 197.542 21.7793 197.066 21.7793C196.4 21.7793 195.822 22.0713 195.479 22.7378V21.9062ZM197.93 27.3525C197.93 27.7842 198.26 28.127 198.704 28.127C199.148 28.127 199.485 27.7842 199.485 27.3525C199.485 26.9209 199.148 26.5718 198.704 26.5718C198.26 26.5718 197.93 26.9209 197.93 27.3525ZM200.443 24.9214C200.443 26.8257 201.853 28.127 203.909 28.127C204.595 28.127 205.223 27.9556 205.807 27.7271L205.617 26.5845C205.134 26.8066 204.48 26.959 203.909 26.959C202.595 26.959 201.7 26.1211 201.7 24.9214C201.7 23.7598 202.595 22.9473 203.896 22.9473C204.595 22.9473 205.16 23.1123 205.591 23.3091L205.725 22.1855C205.439 22.0269 204.703 21.7793 203.896 21.7793C201.846 21.7793 200.443 23.0552 200.443 24.9214ZM206.632 24.9531C206.632 26.7368 208.016 28.127 209.87 28.127C211.723 28.127 213.107 26.7368 213.107 24.9531C213.107 23.1694 211.723 21.7793 209.87 21.7793C208.016 21.7793 206.632 23.1694 206.632 24.9531ZM207.889 24.9531C207.889 23.8296 208.721 22.96 209.87 22.96C211.019 22.96 211.85 23.8296 211.85 24.9531C211.85 26.0767 211.019 26.9463 209.87 26.9463C208.721 26.9463 207.889 26.0767 207.889 24.9531ZM217.665 21.7793C216.592 21.7793 216.014 22.3633 215.817 22.6743V21.9062H214.554V28H215.817V24.5659C215.817 23.5566 216.56 22.9727 217.468 22.9727C218.363 22.9727 218.902 23.5566 218.902 24.5659V28H220.166V24.4897C220.197 23.5312 220.927 22.9727 221.816 22.9727C222.711 22.9727 223.25 23.5566 223.25 24.5659V28H224.514V24.2993C224.514 22.8203 223.638 21.7793 222.013 21.7793C220.965 21.7793 220.204 22.3188 219.835 22.9155C219.448 22.2109 218.712 21.7793 217.665 21.7793Z" fill="#B6B9BB"/>
<defs>
<filter id="filter0_d_153_2559" x="0" y="0" width="401" height="464" filterUnits="userSpaceOnUse" color-interpolation-filters="sRGB">
<feFlood flood-opacity="0" result="BackgroundImageFix"/>
<feColorMatrix in="SourceAlpha" type="matrix" values="0 0 0 0 0 0 0 0 0 0 0 0 0 0 0 0 0 0 127 0" result="hardAlpha"/>
<feOffset dy="4"/>
<feGaussianBlur stdDeviation="7.5"/>
<feComposite in2="hardAlpha" operator="out"/>
<feColorMatrix type="matrix" values="0 0 0 0 0.815686 0 0 0 0 0.835294 0 0 0 0 0.890196 0 0 0 0.25 0"/>
<feBlend mode="normal" in2="BackgroundImageFix" result="effect1_dropShadow_153_2559"/>
<feBlend mode="normal" in="SourceGraphic" in2="effect1_dropShadow_153_2559" result="shape"/>
</filter>
</defs>
</svg>
